<svg width="16" height="17" viewBox="0 0 16 17" fill="none" xmlns="http://www.w3.org/2000/svg">
<path fill-rule="evenodd" clip-rule="evenodd" d="M0.0359218 0.927889C0.151617 0.594447 0.51216 0.419167 0.841226 0.536404L1.09503 0.626822C1.6142 0.811761 2.05516 0.96884 2.40217 1.14138C2.77322 1.32587 3.09141 1.55314 3.33071 1.908C3.56817 2.26011 3.6662 2.64643 3.71145 3.07C3.7317 3.25961 3.74239 3.46947 3.74802 3.70015H12.7064C14.1253 3.70015 15.4026 3.70015 15.7764 4.19258C16.1503 4.68497 16.0041 5.42685 15.7119 6.91053L15.7119 6.91054L15.7118 6.91097L15.2909 8.98005C15.0256 10.2847 14.8929 10.937 14.4283 11.3206C13.9637 11.7043 13.3064 11.7043 11.9919 11.7043H7.52639C5.17786 11.7043 4.0036 11.7043 3.27401 10.9245C2.54441 10.1447 2.49116 9.31635 2.49116 6.80623V4.58617C2.49116 3.95475 2.4903 3.53218 2.45564 3.20774C2.42252 2.89769 2.36383 2.74288 2.28782 2.63016C2.21366 2.52021 2.1011 2.41744 1.84575 2.29048C1.57389 2.15531 1.20442 2.02258 0.64223 1.82229L0.422267 1.74392C0.093201 1.62669 -0.0797652 1.26134 0.0359218 0.927889ZM4.59713 13.94C5.29474 13.94 5.86027 14.513 5.86027 15.2199C5.86027 15.9268 5.29474 16.4999 4.59713 16.4999C3.89951 16.4999 3.33398 15.9268 3.33398 15.2199C3.33398 14.513 3.89951 13.94 4.59713 13.94ZM13.4384 15.22C13.4384 14.513 12.8728 13.94 12.1753 13.94C11.4777 13.94 10.9121 14.513 10.9121 15.22C10.9121 15.9269 11.4777 16.5 12.1753 16.5C12.8728 16.5 13.4384 15.9269 13.4384 15.22Z" fill="#374957"/>
</svg>
