<svg width="16" height="17" viewBox="0 0 16 17" fill="none" xmlns="http://www.w3.org/2000/svg">
<g clip-path="url(#clip0_1_3300)">
<path d="M7.33333 6.61133C7.33333 6.61133 4 4.25333 4 2.33333C3.97897 1.86948 4.14252 1.41618 4.45486 1.0726C4.76721 0.729027 5.20291 0.523146 5.66667 0.5C6.13042 0.523146 6.56613 0.729027 6.87847 1.0726C7.19081 1.41618 7.35436 1.86948 7.33333 2.33333C7.31231 1.86948 7.47586 1.41618 7.7882 1.0726C8.10054 0.729027 8.53625 0.523146 9 0.5C9.46375 0.523146 9.89946 0.729027 10.2118 1.0726C10.5241 1.41618 10.6877 1.86948 10.6667 2.33333C10.6667 4.25333 7.33333 6.61133 7.33333 6.61133ZM15.432 6.28733C15.093 5.97798 14.6453 5.81535 14.1867 5.83496C13.7282 5.85457 13.2961 6.05483 12.9847 6.392L10.6233 8.88333C10.6489 9.02376 10.6634 9.16597 10.6667 9.30867C10.6638 9.98397 10.419 10.6359 9.97654 11.1461C9.53411 11.6563 8.92343 11.9909 8.25533 12.0893L5.428 12.4933L5.23867 11.1733L8.06667 10.7667C8.4327 10.7102 8.7641 10.5181 8.99506 10.2286C9.22603 9.93911 9.33965 9.57332 9.31337 9.20389C9.28709 8.83447 9.12283 8.48844 8.85321 8.23453C8.58359 7.98062 8.22834 7.83741 7.858 7.83333H2C1.46957 7.83333 0.960859 8.04405 0.585786 8.41912C0.210714 8.79419 0 9.3029 0 9.83333L0 14.5C0 15.0304 0.210714 15.5391 0.585786 15.9142C0.960859 16.2893 1.46957 16.5 2 16.5H8.44267L15.5587 8.73C15.8622 8.38762 16.019 7.93968 15.9953 7.48274C15.9716 7.0258 15.7693 6.59648 15.432 6.28733Z" fill="#374957"/>
</g>
<defs>
<clipPath id="clip0_1_3300">
<rect width="16" height="16" fill="white" transform="translate(0 0.5)"/>
</clipPath>
</defs>
</svg>
