<svg width="16" height="17" viewBox="0 0 16 17" fill="none" xmlns="http://www.w3.org/2000/svg">
<path d="M14.6218 2.03853C14.1886 1.55115 13.6726 1.16419 13.1039 0.900091C12.5351 0.635991 11.9249 0.5 11.3085 0.5C10.6921 0.5 10.0818 0.635991 9.51305 0.900091C8.94428 1.16419 8.42834 1.55115 7.99511 2.03853C7.56187 1.55115 7.04593 1.16419 6.47716 0.900091C5.9084 0.635991 5.29814 0.5 4.68175 0.5C4.06536 0.5 3.45509 0.635991 2.88633 0.900091C2.31757 1.16419 1.80162 1.55115 1.36839 2.03853C0.491552 3.02727 0 4.35987 0 5.74824C0 7.13661 0.491552 8.46921 1.36839 9.45795L7.42687 16.2369C7.50127 16.3202 7.58979 16.3864 7.68732 16.4316C7.78485 16.4767 7.88945 16.5 7.99511 16.5C8.10076 16.5 8.20537 16.4767 8.30289 16.4316C8.40042 16.3864 8.48894 16.3202 8.56334 16.2369L14.6218 9.45795C15.5045 8.47261 16 7.13874 16 5.74824C16 4.35775 15.5045 3.02387 14.6218 2.03853Z" fill="#374957"/>
</svg>
