<svg width="16" height="17" viewBox="0 0 16 17" fill="none" xmlns="http://www.w3.org/2000/svg">
<g clip-path="url(#clip0_1_3306)">
<path d="M10.6667 0.5H14C14.5304 0.5 15.0391 0.710714 15.4142 1.08579C15.7893 1.46086 16 1.96957 16 2.5V3.83333H10.6667V0.5ZM9.33333 0.5H6.66667V6.5H9.33333V0.5ZM16 5.16667V16.5H0V5.16667H5.33333V7.83333H10.6667V5.16667H16ZM14 13.1667H10.6667V14.5H14V13.1667ZM5.33333 3.83333V0.5H2C1.46957 0.5 0.960859 0.710714 0.585786 1.08579C0.210714 1.46086 0 1.96957 0 2.5L0 3.83333H5.33333Z" fill="#374957"/>
</g>
<defs>
<clipPath id="clip0_1_3306">
<rect width="16" height="16" fill="white" transform="translate(0 0.5)"/>
</clipPath>
</defs>
</svg>
