<svg width="16" height="17" viewBox="0 0 16 17" fill="none" xmlns="http://www.w3.org/2000/svg">
<g clip-path="url(#clip0_1_3309)">
<path d="M10.6953 9.83374H5.30467C4.42854 9.8348 3.5886 10.1833 2.96908 10.8028C2.34957 11.4223 2.00106 12.2623 2 13.1384V16.5004H14V13.1384C13.9989 12.2623 13.6504 11.4223 13.0309 10.8028C12.4114 10.1833 11.5715 9.8348 10.6953 9.83374Z" fill="#374957"/>
<path d="M8 8.5C10.2091 8.5 12 6.70914 12 4.5C12 2.29086 10.2091 0.499996 8 0.499996C5.79086 0.499996 4 2.29086 4 4.5C4 6.70914 5.79086 8.5 8 8.5Z" fill="#374957"/>
</g>
<defs>
<clipPath id="clip0_1_3309">
<rect width="16" height="16" fill="white" transform="translate(0 0.5)"/>
</clipPath>
</defs>
</svg>
